<?xml version="1.0" standalone="no"?>
<!DOCTYPE svg PUBLIC "-//W3C//DTD SVG 20010904//EN"
 "http://www.w3.org/TR/2001/REC-SVG-20010904/DTD/svg10.dtd">
<svg version="1.0" xmlns="http://www.w3.org/2000/svg"
 width="1000.000000pt" height="1000.000000pt" viewBox="0 0 1000.000000 1000.000000"
 preserveAspectRatio="xMidYMid meet">
<metadata>
Created by potrace 1.16, written by Peter Selinger 2001-2019
</metadata>
<g transform="translate(0.000000,1000.000000) scale(0.100000,-0.100000)"
fill="#000000" stroke="none">
<path d="M2270 5205 l0 -3785 2750 0 2750 0 0 2910 0 2910 -745 0 c-721 0
-746 1 -798 20 -73 27 -132 80 -170 154 l-32 61 -3 758 -3 757 -1874 0 -1875
0 0 -3785z m2290 1602 c91 -22 241 -75 257 -91 3 -2 -18 -62 -45 -133 -28 -70
-60 -155 -73 -188 -12 -33 -24 -63 -28 -67 -3 -3 -35 7 -71 24 -160 73 -354
98 -471 61 -108 -35 -202 -165 -234 -325 -17 -89 -20 -292 -4 -370 24 -120 49
-177 105 -237 74 -81 129 -104 261 -109 57 -2 119 -1 139 2 31 6 34 9 22 24
-11 14 -9 14 8 -1 21 -17 25 -17 150 26 71 25 137 48 147 52 16 7 17 -5 15
-206 l-3 -212 -76 -28 c-282 -102 -698 -87 -892 32 -26 16 -52 29 -58 29 -5 0
-49 39 -97 88 -183 183 -250 397 -239 762 6 186 20 268 63 377 108 270 309
440 592 503 127 29 383 22 532 -13z m910 -39 c7 -29 36 -141 65 -248 29 -107
81 -298 116 -425 34 -126 79 -311 100 -410 21 -99 38 -178 39 -175 1 3 3 16 6
30 27 163 69 334 194 790 39 146 86 316 102 378 l31 112 272 0 c149 0 274 -2
277 -5 3 -3 -31 -114 -74 -248 -44 -133 -167 -510 -275 -837 -107 -327 -206
-630 -220 -672 l-25 -78 -292 0 -293 0 -28 95 c-15 52 -31 95 -34 95 -4 0 -7
8 -7 18 0 16 -130 418 -279 867 -62 185 -227 698 -240 743 l-6 22 279 0 280 0
12 -52z m1402 -2724 c82 -61 75 -204 -12 -253 l-38 -21 -1796 0 c-1504 0
-1802 2 -1830 14 -95 40 -113 177 -33 254 l28 27 1787 5 c983 3 1805 2 1828
-1 22 -3 52 -14 66 -25z m-22 -1182 c51 -25 80 -74 80 -136 0 -64 -26 -108
-79 -136 -40 -20 -44 -20 -1839 -18 l-1798 3 -37 25 c-56 38 -83 122 -56 173
20 37 80 96 103 100 11 2 824 5 1806 6 1681 1 1787 0 1820 -17z"/>
<path d="M6340 8260 l0 -710 712 0 c391 0 709 2 707 5 -17 19 -1414 1415
-1416 1415 -2 0 -3 -319 -3 -710z"/>
</g>
</svg>
